<?xml version="1.0" standalone="no"?>
<!DOCTYPE svg PUBLIC "-//W3C//DTD SVG 20010904//EN"
 "http://www.w3.org/TR/2001/REC-SVG-20010904/DTD/svg10.dtd">
<svg version="1.0" xmlns="http://www.w3.org/2000/svg"
 width="1934.000000pt" height="236.000000pt" viewBox="0 0 1934.000000 236.000000"
 preserveAspectRatio="xMidYMid meet">
<metadata>
Created by potrace 1.16, written by Peter Selinger 2001-2019
</metadata>
<g transform="translate(0.000000,236.000000) scale(0.100000,-0.100000)"
fill="#000000" stroke="none">
<path d="M0 1650 l0 -710 1175 0 1175 0 0 -230 0 -230 -957 0 c-1044 0 -1040
0 -1145 -57 -143 -78 -248 -238 -248 -379 l0 -44 1415 0 1415 0 0 710 0 710
-1175 0 -1175 0 0 230 0 230 958 0 c1043 0 1039 0 1144 57 143 78 248 238 248
379 l0 44 -1415 0 -1415 0 0 -710z"/>
<path d="M4710 1180 l0 -1180 240 0 240 0 0 470 0 470 724 0 c450 0 744 4 777
10 160 31 319 167 364 313 12 36 14 -55 14 -610 l1 -653 240 0 240 0 0 1180 0
1180 -240 0 -240 0 0 -470 0 -470 -940 0 -940 0 0 470 0 470 -240 0 -240 0 0
-1180z"/>
<path d="M9430 1180 l0 -1180 240 0 240 0 0 1180 0 1180 -240 0 -240 0 0
-1180z"/>
<path d="M11790 2120 l0 -240 1176 0 1175 0 -3 -153 c-3 -148 -4 -155 -31
-195 -37 -56 -92 -91 -163 -102 -35 -6 -479 -10 -1106 -10 l-1048 0 0 -710 0
-710 240 0 240 0 0 470 0 470 958 0 c1039 0 1034 0 1143 56 76 38 173 138 209
216 16 35 34 95 40 133 5 39 10 279 10 543 l0 472 -1420 0 -1420 0 0 -240z"/>
<path d="M16500 1650 l0 -710 1180 0 1180 0 0 -230 0 -230 -957 0 c-1040 0
-1035 0 -1144 -56 -69 -34 -169 -134 -203 -203 -25 -49 -55 -160 -56 -203 0
-17 74 -18 1420 -18 l1420 0 0 710 0 710 -1180 0 -1180 0 0 230 0 230 958 0
c643 0 978 4 1018 11 196 35 363 212 381 402 l6 67 -1422 0 -1421 0 0 -710z"/>
</g>
</svg>
